# xmcd CD database file
#
# Track frame offsets:
#	150
#	12187
#	29517
#	39760
#	54902
#	75265
#	90750
#	99840
#	112905
#	126237
#	143342
#	156810
#	168562
#
# Disc length: 2436 seconds
#
# Revision: 0
# Processed by: cddbd v1.4PL0 Copyright (c) Steve Scherf et al.
# Submitted via: CDex 1.50
#
DISCID=8109820d
DTITLE=Bjørn Elvestad - Instrumental
DYEAR=1995
DGENRE=Country
TTITLE0=Speechless
TTITLE1=Blue Eyes
TTITLE2=Show Me The Way To The Circus
TTITLE3=I Love You Because
TTITLE4=Dowgood Trail
TTITLE5=Theme From The Eastenders
TTITLE6=Pure Steel
TTITLE7=Same Ole Me
TTITLE8=Double Trouble
TTITLE9=Allways On My Mind
TTITLE10=Storm Never Last
TTITLE11=Redskin Rag
TTITLE12=Crazy
EXTD=YEAR: 1995
EXTT0=
EXTT1=
EXTT2=
EXTT3=
EXTT4=
EXTT5=
EXTT6=
EXTT7=
EXTT8=
EXTT9=
EXTT10=
EXTT11=
EXTT12=
PLAYORDER=
